<?xml version="1.0" encoding="utf-8"?>
<!-- Generator: Adobe Illustrator 18.1.1, SVG Export Plug-In . SVG Version: 6.00 Build 0)  -->
<svg version="1.1" id="Layer_1" xmlns="http://www.w3.org/2000/svg" xmlns:xlink="http://www.w3.org/1999/xlink" x="0px" y="0px"
	 viewBox="0 0 109.2 24" enable-background="new 0 0 109.2 24" xml:space="preserve">
<g>
	<path fill="none" d="M82.3,3.9c-1.6,0-3,0.8-3.9,2v4.7c0.8,1.2,2.2,2,3.8,2c2.4,0,4.2-1.8,4.2-4.3C86.4,6,84.8,3.9,82.3,3.9z"/>
	<path fill="none" d="M63,3.9c-2.5,0-4.2,2-4.2,4.3c0,2.4,1.7,4.3,4.2,4.3c2.5,0,4.2-1.9,4.2-4.3C67.1,5.9,65.5,3.9,63,3.9z"/>
	<path fill="none" d="M25.1,3.9c-2.5,0-4.1,2.1-4.1,4.3c0,2.5,1.8,4.3,4.2,4.3c1.6,0,3-0.8,3.8-2V5.9C28.2,4.7,26.8,3.9,25.1,3.9z"
		/>
	<path fill="#4EAE4D" d="M8.6,12.6c-2.6,0-4.4-1.8-4.4-4.3c0-2.4,1.8-4.3,4.3-4.3c1.5,0,2.8,0.8,3.7,1.9l3-2.6
		C13.7,1.3,11.3,0,8.5,0C3.7,0,0,3.7,0,8.3c0,4.6,3.6,8.2,8.5,8.2c3,0,5.3-1.1,7.2-3.6l-3.3-2.4C11.7,11.5,10.4,12.6,8.6,12.6z"/>
	<path fill="#4EAE4D" d="M63,0c-4.8,0-8.4,3.7-8.4,8.3c0,4.6,3.6,8.2,8.4,8.2c4.8,0,8.4-3.7,8.4-8.2C71.4,3.7,67.8,0,63,0z M63,12.6
		c-2.5,0-4.2-1.9-4.2-4.3c0-2.4,1.7-4.3,4.2-4.3c2.5,0,4.2,2,4.2,4.3C67.1,10.6,65.5,12.6,63,12.6z"/>
	<g>
		<path fill="none" d="M25.1,3.9c-2.5,0-4.1,2.1-4.1,4.3c0,2.5,1.8,4.3,4.2,4.3c1.6,0,3-0.8,3.8-2V5.9C28.2,4.7,26.8,3.9,25.1,3.9z"
			/>
		<path fill="#4EAE4D" d="M29.7,0.3c-0.3,0-0.5,0.2-0.5,0.5v0.8C28,0.6,26.4,0,24.6,0c-4.3,0-7.8,3.6-7.8,8.3c0,2.2,0.8,4.1,2,5.6
			c1.4,1.6,3.6,2.7,6,2.7c1.6,0,3.1-0.5,4.4-1.6v0.8c0,0.3,0.2,0.5,0.5,0.5h3.6V0.3H29.7z M29.1,10.6c-0.8,1.2-2.2,2-3.8,2
			c-2.4,0-4.2-1.8-4.2-4.3c0-2.3,1.6-4.3,4.1-4.3c1.6,0,3,0.8,3.9,2V10.6z"/>
	</g>
	<path fill="#4EAE4D" d="M50.5,2.5C49.2,1,47.2,0,45,0c-1.8,0-3.3,0.6-4.5,1.6V0.8c0-0.3-0.2-0.5-0.5-0.5h-3.6v15.8h4.2V5.9
		c0.6-0.8,2.1-2,3.9-2c1,0,1.8,0.3,2.4,0.9c0.6,0.6,0.9,1.4,0.9,3v8.4h4.2V8.1C52.1,5.4,51.5,3.8,50.5,2.5z"/>
	<g>
		<path fill="#4EAE4D" d="M94.2,23.3L94.2,23.3C94.2,23.3,94.2,23.3,94.2,23.3z"/>
		<g>
			<path fill="#4EAE4D" d="M98.4,23.7L98.4,23.7C98.4,23.7,98.4,23.7,98.4,23.7z"/>
			<path fill="#4EAE4D" d="M104.7,0.3l-4.3,9.5l-4.6-9.5h-4.7l7.1,14.2l-4.1,8.8l0,0c0,0.1,0,0.1,0,0.2c0,0.3,0.2,0.5,0.5,0.5H98
				c0.2,0,0.3-0.1,0.4-0.3l0-0.1l10.8-23.4H104.7z"/>
		</g>
	</g>
	<path fill="none" d="M82.3,3.9c-1.6,0-3,0.8-3.9,2v4.7c0.8,1.2,2.2,2,3.8,2c2.4,0,4.2-1.8,4.2-4.3C86.4,6,84.8,3.9,82.3,3.9z"/>
	<g>
		<path fill="none" d="M82.3,3.9c-1.6,0-3,0.8-3.9,2v4.7c0.8,1.2,2.2,2,3.8,2c2.4,0,4.2-1.8,4.2-4.3C86.4,6,84.8,3.9,82.3,3.9z"/>
		<path fill="#4EAE4D" d="M78.4,23.5L78.4,23.5L78.4,23.5C78.4,23.5,78.4,23.5,78.4,23.5z"/>
		<path fill="#4EAE4D" d="M82.9,0c-1.8,0-3.4,0.6-4.6,1.6V0.8c0-0.3-0.2-0.5-0.5-0.5h-3.6v23.2c0,0.2,0.1,0.4,0.3,0.4
			c0.1,0,0.1,0,0.2,0h3.3c0.3,0,0.5-0.2,0.5-0.5c0,0,0-0.1,0-0.1l0,0v-8.4c1.3,1,2.6,1.4,4.2,1.4c2.4,0,4.6-1,6-2.7
			c1.2-1.4,2-3.4,2-5.6C90.7,3.6,87.2,0,82.9,0z M82.2,12.6c-1.6,0-3-0.8-3.8-2V5.9c0.9-1.2,2.3-2,3.9-2c2.5,0,4.1,2.1,4.1,4.3
			C86.4,10.7,84.6,12.6,82.2,12.6z"/>
	</g>
</g>
</svg>
